<?xml version="1.0" encoding="utf-8"?>
<!-- Generator: Adobe Illustrator 18.0.0, SVG Export Plug-In . SVG Version: 6.00 Build 0)  -->
<!DOCTYPE svg PUBLIC "-//W3C//DTD SVG 1.1//EN" "http://www.w3.org/Graphics/SVG/1.1/DTD/svg11.dtd" [
	<!ENTITY ns_extend "http://ns.adobe.com/Extensibility/1.0/">
	<!ENTITY ns_ai "http://ns.adobe.com/AdobeIllustrator/10.0/">
	<!ENTITY ns_graphs "http://ns.adobe.com/Graphs/1.0/">
	<!ENTITY ns_vars "http://ns.adobe.com/Variables/1.0/">
	<!ENTITY ns_imrep "http://ns.adobe.com/ImageReplacement/1.0/">
	<!ENTITY ns_sfw "http://ns.adobe.com/SaveForWeb/1.0/">
	<!ENTITY ns_custom "http://ns.adobe.com/GenericCustomNamespace/1.0/">
	<!ENTITY ns_adobe_xpath "http://ns.adobe.com/XPath/1.0/">
]>
<svg version="1.1" id="Слой_1" xmlns:x="&ns_extend;" xmlns:i="&ns_ai;" xmlns:graph="&ns_graphs;"
	 xmlns="http://www.w3.org/2000/svg" xmlns:xlink="http://www.w3.org/1999/xlink" x="0px" y="0px" viewBox="0 80 1000 660"
	 enable-background="new 0 80 1000 660" xml:space="preserve">
<metadata>
	<sfw  xmlns="&ns_sfw;">
		<slices></slices>
		<sliceSourceBounds  width="897.439" height="492.672" y="153.766" x="30.795" bottomLeftOrigin="true"></sliceSourceBounds>
	</sfw>
</metadata>
<g opacity="0.2">
	<path id="figure_1" fill="#F47524" d="M384.615,656.479C499.372,695.98,774.52,610.691,818.12,487.676
		c43.6-123.015-160.831-237.107-275.626-276.701s-243.226,28.176-286.734,151.152S269.858,616.978,384.615,656.479z"/>
</g>
<g opacity="0.2">
	<path id="figure_2" fill="#DB1967" d="M277.278,590.037c45.742,49.301,178.889,29.439,278.955-19.049
		s243.621-174.209,179.39-302.05c-25.024-49.802-111.943-126.294-310.071,2.102C315.696,342.229,214.106,521.981,277.278,590.037z"
		/>
</g>
<g opacity="0.2">
	<path id="figure_3" fill="#993399" d="M261.97,232.754c-51.031,91.998,66.286,288.503,161.724,341.394
		c95.438,52.891,253.699,9.182,304.729-82.815s45.4-176.712-134.26-185.003C485.961,301.284,313.041,140.665,261.97,232.754z"/>
</g>
<g opacity="0.2">
	<path id="figure_4" fill="#993399" d="M740.7,174.9c-21.3,7.3-47.9,68.4-37.2,104.5s54.6,33.7,76,26.3
		c21.3-7.3,29.9-42.5,19.3-78.7C787.9,190.9,762,167.6,740.7,174.9z"/>
</g>
<g opacity="0.2">
	<path id="figure_5" fill="#DB1967" d="M30.9,515.8c1.6,16.5,37.6,43.6,62.7,40.1s30-36,28.4-52.5c-1.6-16.5-23.4-27.2-48.5-23.7
		C48.3,483,29.2,499.3,30.9,515.8z"/>
</g>
<g opacity="0.2">
	<path id="figure_6" fill="#DB1967" d="M928.1,301.7c-1.6-10.2-27.2-25.3-44.7-22c-17.4,3.3-20,23.8-18.4,34.1
		c1.6,10.2,17,15.8,34.4,12.5S929.7,311.9,928.1,301.7z"/>
</g>
<script  type="text/javascript" xlink:href="../js/tweenmax.2.0.0.min.js"/>
<script  type="text/javascript" xlink:href="../js/rotation.js"/>
</svg>
